 <svg width="498" height="553" viewBox="0 0 498 553" fill="none" xmlns="http://www.w3.org/2000/svg">
        <path
            d="M80.9251 339.498L355.139 99.3265L251.747 8L147.855 99.3265L415.077 337.741L385.108 365.403L110.894 128.744L9 220.071L277.72 454.973L250.748 480L221.778 454.973L489 220.071L385.108 128.744L110.894 365.403L80.9251 339.498Z"
            stroke="white" stroke-width="11" />
        <path
            d="M9 337.706L279.715 101.487L247.749 73L216.282 101.487L484 334.638L383.606 428.424L110.893 192.643L82.9222 218.5L351.639 454.72L249.747 545L142.36 454.72L413.574 218.5L385.104 192.643L112.391 428.424L9 337.706Z"
            stroke="white" stroke-width="11" />
    </svg>